HIERARCHY
ROOT Hips
{
	OFFSET 0.000000 0.000000 0.000000
	CHANNELS 6 Xposition Yposition Zposition Zrotation Yrotation Xrotation 
	JOINT LHipJoint
	{
		OFFSET 0.000000 0.000000 0.000000
		CHANNELS 3 Zrotation Yrotation Xrotation
		JOINT LeftUpLeg
		{
			OFFSET 1.363060 -1.794630 0.839290
			CHANNELS 3 Zrotation Yrotation Xrotation
			JOINT LeftLeg
			{
				OFFSET 2.448110 -6.726130 0.000000
				CHANNELS 3 Zrotation Yrotation Xrotation
				JOINT LeftFoot
				{
					OFFSET 2.562200 -7.039590 0.000000
					CHANNELS 3 Zrotation Yrotation Xrotation
					JOINT LeftToeBase
					{
						OFFSET 0.157640 -0.433110 2.322550
						CHANNELS 3 Zrotation Yrotation Xrotation
						End Site
						{
							OFFSET 0.000000 0.000000 0.000000
						}
					}
				}
			}
		}
	}
	JOINT RHipJoint
	{
		OFFSET 0.000000 0.000000 0.000000
		CHANNELS 3 Zrotation Yrotation Xrotation
		JOINT RightUpLeg
		{
			OFFSET -1.305520 -1.794630 0.839290
			CHANNELS 3 Zrotation Yrotation Xrotation
			JOINT RightLeg
			{
				OFFSET -2.542530 -6.985550 0.000000
				CHANNELS 3 Zrotation Yrotation Xrotation
				JOINT RightFoot
				{
					OFFSET -2.568260 -7.056230 0.000000
					CHANNELS 3 Zrotation Yrotation Xrotation
					JOINT RightToeBase
					{
						OFFSET -0.164730 -0.452590 2.363150
						CHANNELS 3 Zrotation Yrotation Xrotation
						End Site
						{
							OFFSET 0.000000 0.000000 0.000000
						}
					}
				}
			}
		}
	}
}
MOTION
Frames: 11
Frame Time: 0.008333
1.018564 17.345271 0.741448 -169.967274 -21.031427 -174.840095 -11.037235 3.736217 -3.090658 5.604654 39.577636 -2.884850 -1.688699 0.136010 7.722289 3.480719 28.344380 8.534158 8.167200 0.000000 -52.107500 9.709181 -0.293599 8.250038 10.065336 20.022065 -21.607163 4.551495 0.560220 2.705472 2.712403 32.445431 17.523978 12.684100 0.000001 -83.428400
1.003584 17.348524 0.742660 -169.970710 -20.496436 -174.681871 -11.047783 3.778641 -3.205898 5.435897 40.216359 -2.886918 -1.760644 0.120781 7.371719 3.495673 28.552451 8.535038 8.236800 0.000000 -51.512700 9.707324 -0.242790 8.314972 9.930727 20.280480 -21.800356 4.553556 0.565289 2.755630 2.717654 32.612245 17.553693 12.770200 0.000000 -83.755300
0.988807 17.350634 0.742258 -170.023135 -19.946148 -174.515882 -11.080577 3.824051 -3.324729 5.308986 40.904407 -2.872592 -1.840300 0.108772 7.087372 3.485469 28.600468 8.579253 8.265500 0.000000 -51.144200 9.680087 -0.207349 8.400753 9.765450 20.591357 -21.967024 4.556444 0.573277 2.764211 2.724029 32.779706 17.579947 12.857100 -0.000000 -83.991300
0.975099 17.351878 0.740140 -170.115575 -19.412154 -174.342802 -11.124938 3.871496 -3.439333 5.211599 41.575884 -2.848477 -1.921251 0.101494 6.880595 3.454434 28.507702 8.672595 8.264000 0.000001 -51.005000 9.637870 -0.185297 8.498998 9.570476 20.933275 -22.101102 4.558174 0.584411 2.720207 2.730402 32.918805 17.604439 12.932300 0.000000 -84.116699
0.963710 17.352481 0.736390 -170.245286 -18.930865 -174.162870 -11.169583 3.919099 -3.541909 5.128018 42.162093 -2.823792 -1.996291 0.100281 6.759700 3.408771 28.305064 8.816313 8.245400 0.000000 -51.125799 9.591293 -0.173653 8.600941 9.345659 21.286152 -22.200624 4.555824 0.598033 2.619674 2.735693 32.996075 17.625608 12.980200 0.000000 -84.121700
0.955213 17.352725 0.731055 -170.408962 -18.538782 -173.972730 -11.208239 3.965594 -3.622184 5.033414 42.595500 -2.815554 -2.058446 0.105797 6.730768 3.355515 28.027605 9.000817 8.219000 0.000000 -51.473400 9.546295 -0.170707 8.699915 9.088130 21.631676 -22.271049 4.547070 0.613367 2.465679 2.739380 32.980682 17.641412 12.985500 0.000001 -84.006400
0.949902 17.353564 0.723753 -170.621551 -18.254027 -173.759494 -11.243529 4.018042 -3.661170 4.878317 42.798250 -2.853994 -2.101356 0.119725 6.788719 3.304897 27.732352 9.221630 8.203800 0.000000 -51.996300 9.503082 -0.174602 8.791239 8.786163 21.953213 -22.322853 4.531010 0.632307 2.263414 2.742263 32.848415 17.659583 12.939300 0.000000 -83.775700
0.947461 17.356211 0.714463 -170.878910 -18.132304 -173.512612 -11.268390 4.070279 -3.643973 4.614514 42.683917 -2.967970 -2.114697 0.137621 6.918816 3.267042 27.484889 9.473336 8.224800 0.000000 -52.591500 9.466601 -0.190464 8.871452 8.432331 22.223428 -22.379041 4.503384 0.652049 2.017602 2.743332 32.585890 17.684570 12.840500 0.000000 -83.436800
0.948171 17.360672 0.704346 -171.176465 -18.197281 -173.244447 -11.278587 4.115418 -3.571853 4.248820 42.239429 -3.153002 -2.095304 0.158354 7.127684 3.245752 27.310523 9.737267 8.283401 0.000000 -53.225800 9.439125 -0.218666 8.936959 8.031018 22.437531 -22.437272 4.462057 0.669208 1.744005 2.741337 32.177678 17.711192 12.680300 0.000000 -83.017400
0.952062 17.366158 0.694634 -171.507714 -18.438928 -172.966230 -11.274731 4.149218 -3.456837 3.806776 41.499792 -3.396571 -2.046865 0.182738 7.429312 3.241382 27.211595 9.983136 8.366701 0.000000 -53.849200 9.420302 -0.255059 8.981588 7.590425 22.600324 -22.498462 4.407358 0.680869 1.479721 2.735780 31.625782 17.719501 12.449000 -0.000000 -82.553500
0.958756 17.371902 0.686066 -171.866170 -18.837483 -172.684003 -11.259771 4.169115 -3.311670 3.313514 40.517492 -3.691581 -1.975692 0.211197 7.832763 3.252981 27.184948 10.186967 8.462300 -0.000000 -54.428300 9.407521 -0.295952 9.002848 7.118028 22.721540 -22.567918 4.340938 0.685506 1.256357 2.726661 30.941699 17.692268 12.143699 0.000000 -82.081000
